<svg width="366" height="53" viewBox="0 0 366 53" fill="none" xmlns="http://www.w3.org/2000/svg">
<g filter="url(#filter0_d_1_8797)">
<path d="M9 31.5746L14.622 33.337L23.6171 32.547L32.6123 41.3591L41.6074 38.3204L50.0404 37.105L59.5977 33.337L68.0307 24.4033L77.0258 24.1602L87.1454 24.768L95.5783 25.558L104.574 35.221L113.569 34.3702L122.564 40.5083L131.559 37.9558L140.554 40.0829L158.544 37.5304L167.54 31.5746L176.535 28.9613L195.087 43L203.52 29.2652L213.078 23.9779L221.51 29.2652L231.068 27.7459L239.501 25.558L248.496 19.4807L258.586 12.3137L267.611 14.3757L276.044 19.9061L284.477 20.7569L294.034 20.5138L303.029 16.6243L311.462 17.9006L321.019 10L330.577 10.8508L357 17.2928" stroke="#40B869" stroke-width="2"/>
</g>
<defs>
<filter id="filter0_d_1_8797" x="0.700867" y="0.967512" width="364.536" height="51.495" filterUnits="userSpaceOnUse" color-interpolation-filters="sRGB">
<feFlood flood-opacity="0" result="BackgroundImageFix"/>
<feColorMatrix in="SourceAlpha" type="matrix" values="0 0 0 0 0 0 0 0 0 0 0 0 0 0 0 0 0 0 127 0" result="hardAlpha"/>
<feOffset/>
<feGaussianBlur stdDeviation="4"/>
<feColorMatrix type="matrix" values="0 0 0 0 0 0 0 0 0 0.388235 0 0 0 0 0.960784 0 0 0 0.24 0"/>
<feBlend mode="normal" in2="BackgroundImageFix" result="effect1_dropShadow_1_8797"/>
<feBlend mode="normal" in="SourceGraphic" in2="effect1_dropShadow_1_8797" result="shape"/>
</filter>
</defs>
</svg>
