<svg width="18" height="19" viewBox="0 0 18 19" fill="none" xmlns="http://www.w3.org/2000/svg">
<path d="M5.28814 4.72712C4.99525 4.43422 4.52038 4.43422 4.22748 4.72712C3.93459 5.02001 3.93459 5.49488 4.22748 5.78778L7.93979 9.50009L4.22748 13.2124C3.93459 13.5053 3.93459 13.9802 4.22748 14.2731C4.52038 14.566 4.99525 14.566 5.28814 14.2731L9.00045 10.5607L12.7128 14.2731C13.0057 14.566 13.4805 14.566 13.7734 14.2731C14.0663 13.9802 14.0663 13.5053 13.7734 13.2124L10.0611 9.50009L13.7734 5.78778C14.0663 5.49488 14.0663 5.02001 13.7734 4.72712C13.4805 4.43422 13.0057 4.43422 12.7128 4.72712L9.00045 8.43943L5.28814 4.72712Z" fill="#1D2739"/>
</svg>
