<svg width="18" height="18" viewBox="0 0 18 18" fill="none" xmlns="http://www.w3.org/2000/svg">
<path fill-rule="evenodd" clip-rule="evenodd" d="M15.447 2.1825C14.4371 1.17256 12.7997 1.17256 11.7897 2.1825L5.39562 8.5766C4.93663 9.03559 4.63889 9.63107 4.54709 10.2737L4.3618 11.5707C4.22038 12.5606 5.06891 13.4092 6.05886 13.2677L7.35588 13.0825C7.99847 12.9907 8.59395 12.6929 9.05294 12.2339L15.447 5.83983C16.457 4.82989 16.457 3.19245 15.447 2.1825ZM13.0075 3.1129C13.4302 2.8247 14.0113 2.86812 14.3864 3.24317C14.7614 3.61821 14.8048 4.1993 14.5166 4.62206L13.0075 3.1129ZM11.9334 4.16014L13.4694 5.69614L7.99228 11.1733C7.76278 11.4028 7.46504 11.5516 7.14375 11.5975L5.84672 11.7828L6.03201 10.4858C6.07791 10.1645 6.22678 9.86676 6.45628 9.63726L11.9334 4.16014Z" fill="#98A2B3"/>
<path d="M4.5 1.50001C2.84315 1.50001 1.5 2.84316 1.5 4.50001V13.5C1.5 15.1569 2.84315 16.5 4.5 16.5H13.5C15.1569 16.5 16.5 15.1569 16.5 13.5V9.00001C16.5 8.5858 16.1642 8.25001 15.75 8.25001C15.3358 8.25001 15 8.5858 15 9.00001V13.5C15 14.3284 14.3284 15 13.5 15H4.5C3.67157 15 3 14.3284 3 13.5V4.50001C3 3.67159 3.67157 3.00001 4.5 3.00001H6.51316C6.92737 3.00001 7.26316 2.66423 7.26316 2.25001C7.26316 1.8358 6.92737 1.50001 6.51316 1.50001H4.5Z" fill="#98A2B3"/>
</svg>
