<svg width="20" height="20" viewBox="0 0 20 20" fill="none" xmlns="http://www.w3.org/2000/svg">
<path d="M1.66665 5.00001C1.66665 3.15906 3.15903 1.66667 4.99998 1.66667H6.66665C7.12688 1.66667 7.49998 2.03977 7.49998 2.50001C7.49998 2.96024 7.12688 3.33334 6.66665 3.33334H4.99998C4.0795 3.33334 3.33331 4.07953 3.33331 5.00001V6.66667C3.33331 7.12691 2.96022 7.5 2.49998 7.5C2.03974 7.5 1.66665 7.12691 1.66665 6.66667V5.00001Z" fill="white"/>
<path d="M18.3333 5.00001C18.3333 3.15906 16.8409 1.66667 15 1.66667H13.3333C12.8731 1.66667 12.5 2.03977 12.5 2.50001C12.5 2.96024 12.8731 3.33334 13.3333 3.33334H15C15.9205 3.33334 16.6666 4.07953 16.6666 5.00001V6.66667C16.6666 7.12691 17.0397 7.5 17.5 7.5C17.9602 7.5 18.3333 7.12691 18.3333 6.66667V5.00001Z" fill="white"/>
<path d="M4.99998 18.3333C3.15903 18.3333 1.66665 16.841 1.66665 15V13.3333C1.66665 12.8731 2.03974 12.5 2.49998 12.5C2.96022 12.5 3.33331 12.8731 3.33331 13.3333V15C3.33331 15.9205 4.0795 16.6667 4.99998 16.6667H6.66665C7.12688 16.6667 7.49998 17.0398 7.49998 17.5C7.49998 17.9602 7.12688 18.3333 6.66665 18.3333H4.99998Z" fill="white"/>
<path d="M18.3333 15C18.3333 16.841 16.8409 18.3333 15 18.3333H13.3333C12.8731 18.3333 12.5 17.9602 12.5 17.5C12.5 17.0398 12.8731 16.6667 13.3333 16.6667H15C15.9205 16.6667 16.6666 15.9205 16.6666 15V13.3333C16.6666 12.8731 17.0397 12.5 17.5 12.5C17.9602 12.5 18.3333 12.8731 18.3333 13.3333V15Z" fill="white"/>
<path d="M1.66665 10C1.20641 10 0.833313 10.3731 0.833313 10.8333C0.833313 11.2936 1.20641 11.6667 1.66665 11.6667H18.3333C18.7935 11.6667 19.1666 11.2936 19.1666 10.8333C19.1666 10.3731 18.7935 10 18.3333 10H1.66665Z" fill="white"/>
</svg>
