<svg width="21" height="20" viewBox="0 0 21 20" fill="none" xmlns="http://www.w3.org/2000/svg">
<path fill-rule="evenodd" clip-rule="evenodd" d="M5.10427 10.6966C5.64652 11.2574 6.4473 11.4611 7.17788 11.2508C6.6304 11.7783 6.40641 12.5736 6.62096 13.3236L7.55088 16.5744C8.02949 18.2475 10.2269 18.6312 11.2442 17.2193L18.7972 6.73609C19.8471 5.27886 18.6843 3.26484 16.8973 3.44548L4.04214 4.74497C2.31077 4.91999 1.54432 7.01486 2.75396 8.26589L5.10427 10.6966ZM8.39282 12.404L16.6032 6.9301L9.89194 16.245C9.68848 16.5274 9.249 16.4506 9.15328 16.116L8.22335 12.8652C8.17351 12.691 8.24202 12.5045 8.39282 12.404ZM6.78664 9.62198L15.6323 5.24851L4.20977 6.40319C3.86349 6.43819 3.7102 6.85717 3.95213 7.10737L3.35305 7.68663L3.95213 7.10737L6.30243 9.5381C6.42842 9.6684 6.62418 9.70231 6.78664 9.62198Z" fill="#684FCF"/>
</svg>
