<svg width="21" height="20" viewBox="0 0 21 20" fill="none" xmlns="http://www.w3.org/2000/svg">
<path d="M16.0258 1.8535C15.6688 1.5631 15.1439 1.61713 14.8535 1.97418C14.5631 2.33123 14.6171 2.8561 14.9742 3.1465L15.6547 3.7H8.46667C4.98728 3.7 2.16667 6.52061 2.16667 10C2.16667 10.4602 2.53977 10.8333 3.00001 10.8333C3.46024 10.8333 3.83334 10.4602 3.83334 10C3.83334 7.44108 5.90775 5.36667 8.46667 5.36667H15.9491L14.9188 6.3695C14.589 6.69051 14.5818 7.2181 14.9028 7.54791C15.2239 7.87771 15.7514 7.88484 16.0812 7.56383L18.5812 5.1305C18.7517 4.96462 18.8431 4.73383 18.8325 4.49624C18.8219 4.25865 18.7103 4.0369 18.5258 3.88684L16.0258 1.8535Z" fill="#684FCF"/>
<path d="M4.97419 18.1465C5.33124 18.4369 5.8561 18.3829 6.1465 18.0258C6.4369 17.6688 6.38287 17.1439 6.02582 16.8535L5.34529 16.3H12.5333C16.0127 16.3 18.8333 13.4794 18.8333 10C18.8333 9.53976 18.4602 9.16667 18 9.16667C17.5398 9.16667 17.1667 9.53976 17.1667 10C17.1667 12.5589 15.0923 14.6333 12.5333 14.6333H5.05093L6.08124 13.6305C6.41105 13.3095 6.41818 12.7819 6.09717 12.4521C5.77616 12.1223 5.24857 12.1152 4.91877 12.4362L2.41877 14.8695C2.24834 15.0354 2.15691 15.2662 2.1675 15.5038C2.17809 15.7414 2.28968 15.9631 2.47419 16.1132L4.97419 18.1465Z" fill="#684FCF"/>
</svg>
