<svg width="21" height="21" viewBox="0 0 21 21" fill="none" xmlns="http://www.w3.org/2000/svg">
<rect width="20" height="20" transform="translate(0.5 0.5)" fill="white"/>
<path d="M5.74408 2.41075C6.06951 2.08531 6.59715 2.08531 6.92259 2.41075L9.42259 4.91075C9.74803 5.23619 9.74803 5.76382 9.42259 6.08926C9.09715 6.4147 8.56951 6.4147 8.24408 6.08926L7.16667 5.01185L7.16667 18C7.16667 18.4602 6.79357 18.8333 6.33333 18.8333C5.87309 18.8333 5.5 18.4602 5.5 18L5.5 5.01185L4.42259 6.08926C4.09715 6.4147 3.56951 6.4147 3.24408 6.08926C2.91864 5.76382 2.91864 5.23619 3.24408 4.91075L5.74408 2.41075Z" fill="#98A2B3"/>
<path d="M11.5774 16.0893L14.0774 18.5893C14.4028 18.9147 14.9305 18.9147 15.2559 18.5893L17.7559 16.0893C18.0814 15.7638 18.0814 15.2362 17.7559 14.9108C17.4305 14.5853 16.9028 14.5853 16.5774 14.9108L15.5 15.9882V3.00001C15.5 2.53977 15.1269 2.16667 14.6667 2.16667C14.2064 2.16667 13.8333 2.53977 13.8333 3.00001V15.9882L12.7559 14.9108C12.4305 14.5853 11.9028 14.5853 11.5774 14.9108C11.252 15.2362 11.252 15.7638 11.5774 16.0893Z" fill="#98A2B3"/>
</svg>
